<?xml version="1.0" encoding="UTF-8"?>
<svg id="Layer_1" data-name="Layer 1" xmlns="http://www.w3.org/2000/svg" xmlns:xlink="http://www.w3.org/1999/xlink" viewBox="0 0 465.19 587.34">
  <defs>
    <style>
      .cls-1 {
        fill: url(#linear-gradient-2);
      }

      .cls-2 {
        letter-spacing: 0em;
      }

      .cls-2, .cls-3, .cls-4 {
        fill: #004e85;
        font-family: Urbanist-Regular, Urbanist;
        font-variation-settings: 'wght' 400;
      }

      .cls-5 {
        fill: #fff;
      }

      .cls-6 {
        letter-spacing: 0em;
      }

      .cls-6, .cls-7 {
        fill: #00aeef;
        font-family: UrbanistRoman-Bold, Urbanist;
        font-variation-settings: 'wght' 700;
        font-weight: 700;
      }

      .cls-7 {
        letter-spacing: -.05em;
      }

      .cls-4 {
        letter-spacing: 0em;
      }

      .cls-8 {
        fill: url(#linear-gradient);
      }

      .cls-9 {
        fill: none;
        stroke: #fff;
        stroke-miterlimit: 10;
        stroke-width: 13px;
      }

      .cls-10 {
        font-size: 133.77px;
      }
    </style>
    <linearGradient id="linear-gradient" x1="63.27" y1="349.37" x2="363.1" y2="349.37" gradientUnits="userSpaceOnUse">
      <stop offset=".09" stop-color="#30439b"/>
      <stop offset=".91" stop-color="#00a1bf"/>
    </linearGradient>
    <linearGradient id="linear-gradient-2" x1="106.19" y1="45.28" x2="360.43" y2="348.27" xlink:href="#linear-gradient"/>
  </defs>
  <text class="cls-10" transform="translate(0 553.9)"><tspan class="cls-2" x="0" y="0">e</tspan><tspan class="cls-4" x="73.37" y="0">c</tspan><tspan class="cls-3" x="140.66" y="0">o</tspan><tspan class="cls-7" x="215.57" y="0">M</tspan><tspan class="cls-6" x="333.56" y="0">ar</tspan></text>
  <path class="cls-8" d="M180.26,319.33c-37.5-9.24-77.93-16.86-116.99-14.76,43.84,55.16,107.81,89.97,179.11,89.97,44.05,0,85.28-13.33,120.72-36.48-61.67-4.4-122.17-23.79-182.84-38.73Z"/>
  <path class="cls-1" d="M431.6,199c0,34.87-8.99,67.63-24.76,96.12-.63,1.15-1.28,2.29-1.94,3.42-3.51,6.06-7.33,11.92-11.45,17.56-.81,1.11-1.64,2.22-2.48,3.32-2.65,3.49-5.41,6.88-8.28,10.17-16.86,2.42-34.18,2.91-51.57,1.69-90.04-6.33-185.17-50.3-273.38-37.22-3.28-6.02-6.26-12.22-8.91-18.6-2.16-5.17-4.1-10.45-5.82-15.84-.31-.95-.61-1.91-.89-2.87-.15-.46-.28-.92-.42-1.38-5.27-17.87-8.1-36.79-8.1-56.37C33.6,89.09,122.7,0,232.6,0s199,89.09,199,199Z"/>
  <path class="cls-9" d="M130.74,110.93s202.64,182.76,229.14,101.35c26.5-81.41-256.32-35.65-256.32-35.65"/>
  <path class="cls-5" d="M329.86,209.22c9.65,0,9.67-15,0-15s-9.67,15,0,15h0Z"/>
</svg>