<?xml version="1.0" encoding="UTF-8"?>
<svg id="Layer_2" data-name="Layer 2" xmlns="http://www.w3.org/2000/svg" viewBox="0 0 84.74 75.67">
  <defs>
    <style>
      .cls-1 {
        fill: #231f20;
        stroke: #231f20;
        stroke-miterlimit: 10;
      }
    </style>
  </defs>
  <g id="Layer_1-2" data-name="Layer 1">
    <g>
      <path class="cls-1" d="M71.34,12.31C28.25-22.13-16.7,26.54,7.11,58.73-9.38,19.23,33.84-6.3,65.09,12.58l6.25-.27Z"/>
      <path class="cls-1" d="M13.76,55.14c1.06-32.32,41.23-37.64,61.84-32.98,2.13,9.84-12.37,18.62-22.61,10.24,4.4,8.9,17.82,7.18,26.46-2.78,3.33-3.44,4.83-7.14,4.79-11.05-11.19-4.13-25.3-4.05-40.68-2.13-4.38-5.3-12.72-5.24-23.02-2.53,5.52.36,5.65,3.75,2.13,9.18-13.54,16.73-12.91,25.35-8.91,32.05Z"/>
      <path class="cls-1" d="M81.24,36.78c1.73,38.23-39.29,46.81-54.32,30.59-5.67-9.66,8.4-18.55,35.37-27.79-2.19,7.54-8.46,12.99-17.02,17.29-.96-1.24.5-3.81,2.47-6.65-7.41,2.21-20.69,15.16-5.26,18.88,18.91,3.58,31.04-8.91,38.76-32.32Z"/>
      <path class="cls-1" d="M68.51,25.71c-1.66-1.27-3.05-.4-3.05,1.33,1.33,1.06,2.89-.35,3.05-1.33Z"/>
    </g>
  </g>
</svg>