<?xml version="1.0" encoding="UTF-8"?>
<svg id="Layer_2" data-name="Layer 2" xmlns="http://www.w3.org/2000/svg" viewBox="0 0 268.12 75.67">
  <defs>
    <style>
      .cls-1 {
        fill: #231f20;
        stroke: #231f20;
        stroke-miterlimit: 10;
      }
    </style>
  </defs>
  <g id="Layer_1-2" data-name="Layer 1">
    <g>
      <path class="cls-1" d="M71.34,12.31C28.25-22.13-16.7,26.54,7.11,58.73-9.38,19.23,33.84-6.3,65.09,12.58l6.25-.27Z"/>
      <path class="cls-1" d="M13.76,55.14c1.06-32.32,41.23-37.64,61.84-32.98,2.13,9.84-12.37,18.62-22.61,10.24,4.4,8.9,17.82,7.18,26.46-2.78,3.33-3.44,4.83-7.14,4.79-11.05-11.19-4.13-25.3-4.05-40.68-2.13-4.38-5.3-12.72-5.24-23.02-2.53,5.52.36,5.65,3.75,2.13,9.18-13.54,16.73-12.91,25.35-8.91,32.05Z"/>
      <path class="cls-1" d="M81.24,36.78c1.73,38.23-39.29,46.81-54.32,30.59-5.67-9.66,8.4-18.55,35.37-27.79-2.19,7.54-8.46,12.99-17.02,17.29-.96-1.24.5-3.81,2.47-6.65-7.41,2.21-20.69,15.16-5.26,18.88,18.91,3.58,31.04-8.91,38.76-32.32Z"/>
      <path class="cls-1" d="M68.51,25.71c-1.66-1.27-3.05-.4-3.05,1.33,1.33,1.06,2.89-.35,3.05-1.33Z"/>
    </g>
    <g>
      <path class="cls-1" d="M124.31,44.23l2.44,1.28c-.8,1.57-1.72,2.84-2.77,3.8-1.05.96-2.23,1.7-3.54,2.2-1.31.5-2.79.75-4.45.75-3.67,0-6.53-1.2-8.6-3.6-2.07-2.4-3.1-5.12-3.1-8.15,0-2.85.88-5.39,2.63-7.62,2.22-2.84,5.19-4.26,8.91-4.26s6.89,1.45,9.18,4.36c1.63,2.05,2.46,4.62,2.48,7.69h-20.23c.05,2.61.89,4.75,2.5,6.42,1.61,1.67,3.61,2.5,5.98,2.5,1.14,0,2.26-.2,3.34-.6,1.08-.4,2-.93,2.76-1.58.76-.66,1.58-1.72,2.46-3.19ZM124.31,38.18c-.39-1.54-.95-2.78-1.69-3.7-.74-.92-1.71-1.67-2.93-2.23-1.21-.56-2.49-.85-3.83-.85-2.21,0-4.1.71-5.69,2.13-1.16,1.03-2.04,2.58-2.63,4.65h16.76Z"/>
      <path class="cls-1" d="M154.7,33.88l-2.29,1.43c-1.98-2.63-4.68-3.95-8.11-3.95-2.74,0-5.01.88-6.82,2.64-1.81,1.76-2.71,3.9-2.71,6.42,0,1.64.42,3.18,1.25,4.62.83,1.44,1.97,2.57,3.43,3.36,1.45.8,3.08,1.2,4.88,1.2,3.3,0,6-1.32,8.09-3.95l2.29,1.51c-1.07,1.62-2.52,2.87-4.33,3.76-1.81.89-3.87,1.34-6.19,1.34-3.55,0-6.5-1.13-8.84-3.39-2.34-2.26-3.51-5.01-3.51-8.24,0-2.18.55-4.2,1.64-6.06,1.1-1.87,2.6-3.32,4.51-4.37,1.92-1.05,4.06-1.57,6.42-1.57,1.49,0,2.92.23,4.31.68,1.38.45,2.56,1.05,3.52,1.78.96.73,1.78,1.66,2.46,2.79Z"/>
      <path class="cls-1" d="M170.9,28.63c3.46,0,6.33,1.25,8.61,3.76,2.07,2.29,3.1,4.99,3.1,8.12s-1.09,5.89-3.28,8.23c-2.19,2.35-5,3.52-8.43,3.52s-6.27-1.17-8.46-3.52c-2.19-2.35-3.28-5.09-3.28-8.23s1.04-5.81,3.11-8.1c2.28-2.52,5.15-3.78,8.63-3.78ZM170.89,31.46c-2.41,0-4.47.89-6.2,2.67-1.73,1.78-2.59,3.93-2.59,6.45,0,1.62.39,3.14,1.18,4.54.79,1.41,1.85,2.49,3.19,3.25,1.34.76,2.81,1.15,4.42,1.15s3.08-.38,4.42-1.15c1.34-.76,2.41-1.85,3.19-3.25.79-1.4,1.18-2.92,1.18-4.54,0-2.52-.87-4.67-2.6-6.45-1.73-1.78-3.8-2.67-6.19-2.67Z"/>
      <polygon class="cls-1" points="217.5 52.69 214.82 33.32 205.24 52.69 203.23 52.69 193.52 33.15 190.86 52.69 185.9 52.69 190.54 20.3 192.52 20.3 204.25 43.98 215.87 20.3 217.84 20.3 222.5 52.69 217.5 52.69"/>
      <path class="cls-1" d="M187.05,51.69l4.35-30.39h.49l12.36,24.94,12.24-24.94h.49l4.37,30.39h-2.98l-3-21.74-10.75,21.74h-.78l-10.87-21.9-2.99,21.9h-2.93Z"/>
      <path class="cls-1" d="M237.36,53.27c-3.45,0-6.43-1.27-8.87-3.76-2.43-2.49-3.66-5.56-3.66-9.12s1.24-6.52,3.7-9.01c2.46-2.49,5.46-3.75,8.91-3.75,2,0,3.84.43,5.47,1.29.88.46,1.71,1.05,2.47,1.76v-2.48h4.85v24.48h-4.85v-2.4c-.83.71-1.71,1.3-2.64,1.76-1.64.81-3.45,1.22-5.39,1.22ZM237.68,32.42c-1.44,0-2.74.34-3.96,1.05-1.2.7-2.17,1.69-2.88,2.96-.72,1.27-1.08,2.63-1.08,4.05s.37,2.76,1.09,4.05c.72,1.28,1.7,2.29,2.91,3,1.21.71,2.52,1.07,3.9,1.07s2.75-.36,4.01-1.07c1.27-.71,2.21-1.65,2.89-2.86.67-1.2,1.02-2.59,1.02-4.11,0-2.35-.75-4.25-2.28-5.82-1.53-1.56-3.37-2.32-5.61-2.32Z"/>
      <path class="cls-1" d="M249.24,29.21v22.48h-2.85v-3.86c-1.21,1.47-2.57,2.58-4.08,3.33-1.51.74-3.16,1.12-4.95,1.12-3.18,0-5.9-1.15-8.15-3.46-2.25-2.31-3.38-5.11-3.38-8.42s1.14-6,3.41-8.3c2.27-2.3,5.01-3.45,8.2-3.45,1.85,0,3.52.39,5.01,1.18s2.81,1.96,3.94,3.53v-4.13h2.85ZM237.68,31.42c-1.61,0-3.1.4-4.46,1.19s-2.45,1.9-3.25,3.33-1.21,2.94-1.21,4.54.41,3.1,1.22,4.54,1.9,2.57,3.27,3.37,2.84,1.21,4.41,1.21,3.08-.4,4.5-1.2c1.42-.8,2.51-1.88,3.27-3.24s1.15-2.9,1.15-4.6c0-2.6-.86-4.77-2.57-6.52-1.71-1.75-3.82-2.62-6.32-2.62Z"/>
      <path class="cls-1" d="M253.65,52.69v-24.48h4.95v1.54c.4-.38.82-.71,1.24-.99,1.14-.75,2.35-1.12,3.61-1.12.97,0,1.99.3,3.05.89l.91.51-2.51,4.06-.79-.34c-.59-.26-.94-.31-1.13-.31-.72,0-1.41.31-2.13.94-.74.66-1.33,1.74-1.75,3.21-.23.82-.5,2.78-.5,7.5v8.6h-4.95Z"/>
      <path class="cls-1" d="M254.65,29.21h2.95v3.29c.88-1.29,1.81-2.26,2.79-2.9.98-.64,2-.96,3.06-.96.8,0,1.65.26,2.56.76l-1.51,2.44c-.61-.26-1.12-.39-1.53-.39-.96,0-1.89.4-2.79,1.19s-1.58,2.02-2.05,3.69c-.36,1.28-.54,3.87-.54,7.77v7.6h-2.95v-22.48Z"/>
    </g>
  </g>
</svg>