<?xml version="1.0" encoding="UTF-8"?>
<svg id="Layer_1" xmlns="http://www.w3.org/2000/svg" version="1.1" viewBox="0 0 900.28 841.89">
  <!-- Generator: Adobe Illustrator 29.6.1, SVG Export Plug-In . SVG Version: 2.1.1 Build 9)  -->
  <defs>
    <style>
      .st0 {
        fill: #fff;
      }

      .st0, .st1, .st2, .st3, .st4 {
        stroke: #231f20;
        stroke-miterlimit: 10;
      }

      .st5 {
        font-size: 48px;
      }

      .st5, .st1 {
        fill: #12274a;
      }

      .st2 {
        fill: none;
      }

      .st3 {
        fill: #76cdd7;
      }

      .st4 {
        fill: #13274b;
      }

      .st6 {
        font-family: MyriadPro-Regular, 'Myriad Pro';
      }

      .st7 {
        font-family: BookAntiqua, 'Book Antiqua';
      }
    </style>
  </defs>
  <path class="st4" d="M350.57,457.1c-3.3,9.28-13.44,13.98-16.67,15.48-26.27,12.18-59.06-9.63-67.86-15.48-27.98-18.61-25.62-32.99-48.81-40.48-3.3-1.06-29.16-9.03-47.62,3.57-13.17,8.99-15.84,15.52-15.89,15.48-.03-.02-3.04,3.86,0,0,3.42,6.23-5.36-10.02,1.91,3.49-.1.06-3.53,2.08-1.91-3.49,7.63-26.22,51.18-74.81,102.79-69.64,56.4,5.65,103.56,64.31,94.05,91.07Z"/>
  <ellipse class="st0" cx="319.02" cy="424.96" rx="8.93" ry="10.71"/>
  <path class="st1" d="M205.33,426.15c2.13,4.95-5.6,14.31-13.1,19.05-9.56,6.05-15.06,2.25-23.81,9.52-2.91,2.42-5.51,5.58-10.71,11.9-6.33,7.69-7.13,9.87-7.94,9.59-2.99-1.01-3.82-34.2,16.37-48.34,14.34-10.05,36.33-8.39,39.2-1.73Z"/>
  <path class="st2" d="M931.81,428.57"/>
  <path class="st2" d="M695.3,212.91"/>
  <path class="st2" d="M665.53,191.48"/>
  <path class="st2" d="M564.34,80.77"/>
  <text class="st5" transform="translate(405.39 437.18)"><tspan class="st6" x="0" y="0">E</tspan><tspan class="st7" x="23.62" y="0">CO MAR</tspan></text>
  <text/>
  <text/>
  <path class="st3" d="M223.27,46.45"/>
  <text/>
</svg>