<?xml version="1.0" encoding="UTF-8"?>
<svg id="Layer_1" data-name="Layer 1" xmlns="http://www.w3.org/2000/svg" viewBox="0 0 306.47 359.3">
  <defs>
    <style>
      .cls-1 {
        fill: #1d1d1b;
        font-size: 80px;
      }

      .cls-2 {
        font-family: Poppins-Medium, Poppins;
        font-weight: 500;
      }

      .cls-3 {
        font-family: Poppins-Regular, Poppins;
      }
    </style>
  </defs>
  <g>
    <path d="M224.44,24.66c.38.49,1.23.32,1.46,1.57.25,1.37.16,6.25-.16,7.64-.42,1.84-3.64,3.43-4.16,5.24-.8,2.78.94,6.02.33,8.07-.35,1.17-5.25,5.54-5.38,6.29l3.81,4.92c.47.21,5.95-2.61,6.83-3.16,6.36-3.98,12.77-10.18,16.96-16.38.82-1.21,4.07-8.3,4.73-8.45,1.94-.46,3.22,5.89,2.94,7.34-.2,1.02-1.21,1.96-1.44,3.03-.35,1.65.22,3.4-.53,5.01-.55,1.19-2.15,1.56-2.93,2.61-1.15,1.55-1.71,4.71-3.05,6.37-1.44,1.79-4.95,3.66-6.35,5.83-.92,1.42-1,3.64-1.94,4.7-1.08,1.22-5.82,1.93-6.26,4.25-.29,1.51,2.23,3.71,2.63,4.51,6.6,13.24,9.78,28.24,15.59,41.78.25.59,1.22.47,1.49,1.92.38,2.03-.59,7.56-1.22,9.65-.3,1-1.01.89-1.38,1.48-.97,1.55-.66,3.79-4.06,3.34-2.63-.35-9.69-9.93-12.55-12.38-14.41-12.34-29.31-24.68-44.34-36.49-9.66-7.59-28.84-19.86-40.15-24.07-7.43-2.77-12.59,1.35-20.12.48-.21-2.11,3.5-1.04,2.76-3.87-9.92-.92-21.93-.63-31.2,3.39-12.66,5.49-21.62,17.57-31.88,26.25-.67.57-4.27,3.38-4.72,3.59-.29.13-.94.1-.82-.27,1.04-1.79,1.79-3.78,2.61-5.68.26-.61,1.03-.58,1.22-1.12.26-.71.7-4.04.65-4.85-.06-1-1.91-1.22-1.67-2.7l2.17-1.99c-4.27-.1-7.46,4.34-11.12,5.76-7.04,2.73-15.31,4.54-22.3,8.15l-10.86,7.13c-.37-.38,1.27-2.45,1.65-2.89,6.85-7.75,11.47-12.79,20.74-18.18s24.34-6.78,34.44-12.06c1.67-.87,3.97-3.39,5.85-4.67,12.83-8.69,26.92-16.63,41.79-21.32,15.46-4.88,51.87-2.37,67.75,2.22,2.99.86,5.72,2.42,8.74,3.16.62-2.03-.94-5.1-.46-6.79s4.03-4.49,4.9-5.81c3.99-6.06,4.16-14.24,4.1-21.21l5.13-6,1.57.48c1.55,3.26,2,7.3,3.2,10.65.51,1.42,1.99,2.83,2.44,4.2.8,2.41-.1,5.13.23,6.37.1.37,1.85,2.31,2.35,2.97Z"/>
    <path d="M70.98,113.71c1.74,1.84,3.22,3.96,5.19,5.62,24.25,20.39,48.05,42.91,76.91,57.08,3.61,1.77,9.82,5.39,13.57,5.24,4.77-.19,9.59-2.65,14.68-1.66.21,2.11-3.5,1.04-2.76,3.87,9.14,1.01,19.14.42,27.96-2.2,15.05-4.48,23.81-17.04,35.12-26.89.88-.76,3.91-3.31,4.72-3.58,1.41-.48.47.53.38.94-.75,3.31-3.79,5.55-3.96,9.38-.08,1.89,1.1,2.84,1.07,3.8-.02.68-2.27,2.9-.31,2.45,3.41-.77,6.63-4.52,9.77-5.74,7.94-3.08,15.16-4.68,23.02-9.09,2.92-1.64,6.86-5.58,8.98-6.52.84-.38,1.35-.52,1.16.6-3.38,2.31-5.07,6.42-7.76,9.41-3.66,4.07-16.79,12.48-22.01,14.53-7.95,3.12-19.52,4.81-27.07,8.91-2.39,1.3-6.18,4.92-8.83,6.67-32.62,21.55-57.72,25.15-96.59,18.76-6.41-1.05-12.62-3.21-18.7-5.37-.15,2.33,1.05,4.41.41,6.79-.58,2.17-2.92,3.04-3.93,4.43-4.6,6.3-5.12,15.06-5.02,22.6-1.02,1.26-5.12,7.59-6.94,6.05-.82-3.8-1.76-7.96-3.07-11.61-.52-1.45-1.78-2.52-2.33-4.31-.68-2.25,0-4.25-.24-5.28-.17-.73-2.95-2.16-3.54-4.23-.43-1.51-.52-6.42-.12-7.92.54-2.03,4.11-4.65,4.3-5.67.16-.84.17-4.1-.02-4.89-.1-.44-1.61-.17-1.09-2.22.11-.42,5.26-5.25,5.82-6.48.12-.27.31-.5.28-.82l-4.49-4.48c-4.1,2.19-8.73,4.13-12.42,6.97-2.9,2.24-7.92,7.93-10.16,10.88-1.1,1.45-4.37,9.94-5.34,10.17-1.63.39-2.99-5.87-3-7,0-1.76,1.19-2.53,1.5-3.93.35-1.57-.1-3.79.69-5.26.37-.69,2.19-1.46,3.01-2.67,1.14-1.71,1.5-4.18,2.83-6.03,1.68-2.35,5.15-3.82,6.58-6.15.88-1.42.82-3.39,1.69-4.4.74-.86,5.93-2.8,6.31-4.23-2.17-4.03-4.45-8.54-6.3-12.97-3.47-8.28-5.59-16.68-8.56-25.23-1.18-3.39-4.7-8.03-4.99-11.12-.17-1.85,1.86-11.49,3.11-12.44,4.65-3.58,7.72,2.31,10.49,5.24Z"/>
  </g>
  <text class="cls-1" transform="translate(0 312.74)"><tspan class="cls-3" x="0" y="0">eco</tspan><tspan class="cls-2" x="151.04" y="0">Mar</tspan></text>
</svg>