<svg width="200" height="56" viewBox="0 0 200 56" fill="none" xmlns="http://www.w3.org/2000/svg">
<g clip-path="url(#clip0_367_1459)">
<path d="M53.2151 9.11006C21.0728 -16.3775 -12.457 19.641 5.30375 43.4634C-6.99672 14.2312 25.2426 -4.66238 48.553 9.30987L53.2151 9.11006Z" fill="white" stroke="white" stroke-miterlimit="10"/>
<path d="M10.2641 40.8067C11.0548 16.8881 41.019 12.951 56.3927 16.3996C57.9815 23.6818 47.1655 30.1795 39.5271 23.9778C42.8092 30.5643 52.8197 29.2914 59.2646 21.9205C61.7485 19.3747 62.8674 16.6365 62.8376 13.7428C54.4906 10.6864 43.9654 10.7456 32.493 12.1665C29.2258 8.24423 23.0047 8.28864 15.3215 10.2942C19.4391 10.5606 19.5361 13.0694 16.9104 17.0879C6.81043 29.469 7.28036 35.8483 10.2641 40.8067Z" fill="white" stroke="white" stroke-miterlimit="10"/>
<path d="M60.5998 27.2192C61.8903 55.5116 31.292 61.8612 20.0806 49.8575C15.8512 42.7086 26.3465 36.1295 46.4644 29.2914C44.8308 34.8714 40.1538 38.9047 33.7685 42.087C33.0525 41.1693 34.1415 39.2673 35.611 37.1656C30.0836 38.8011 20.1776 48.3848 31.6874 51.1378C45.793 53.7872 54.8412 44.5439 60.5998 27.2192Z" fill="white" stroke="white" stroke-miterlimit="10"/>
<path d="M51.1042 19.0267C49.866 18.0868 48.8291 18.7307 48.8291 20.011C49.8212 20.7954 50.9849 19.752 51.1042 19.0267Z" fill="white" stroke="white" stroke-miterlimit="10"/>
<path d="M92.6904 32.7326L94.5105 33.6799C93.9138 34.8418 93.2275 35.7816 92.4443 36.4921C91.6611 37.2025 90.7809 37.7502 89.8037 38.1202C88.8265 38.4902 87.7225 38.6753 86.4843 38.6753C83.7467 38.6753 81.6133 37.7872 80.0692 36.0111C78.5251 34.2349 77.7568 32.222 77.7568 29.9796C77.7568 27.8704 78.4133 25.9907 79.7186 24.3404C81.3746 22.2386 83.59 21.1877 86.3649 21.1877C89.1398 21.1877 91.5044 22.2608 93.2126 24.4144C94.4285 25.9315 95.0476 27.8334 95.0625 30.1054H79.9723C80.0096 32.037 80.6361 33.6207 81.8371 34.8566C83.0381 36.0925 84.5299 36.7067 86.2978 36.7067C87.1482 36.7067 87.9836 36.5587 88.7892 36.2627C89.5948 35.9667 90.2811 35.5744 90.848 35.0934C91.4149 34.6049 92.0266 33.8205 92.683 32.7326H92.6904ZM92.6904 28.2553C92.3995 27.1156 91.9818 26.1979 91.4298 25.5171C90.8778 24.8362 90.1543 24.2812 89.2442 23.8667C88.3417 23.4523 87.3869 23.2377 86.3873 23.2377C84.7388 23.2377 83.329 23.7631 82.1429 24.814C81.2776 25.5763 80.6212 26.7234 80.1811 28.2553H92.683H92.6904Z" fill="white" stroke="white" stroke-miterlimit="10"/>
<path d="M115.359 25.073L113.651 26.1313C112.174 24.185 110.16 23.2081 107.601 23.2081C105.558 23.2081 103.864 23.8593 102.514 25.1618C101.164 26.4643 100.493 28.0481 100.493 29.913C100.493 31.1267 100.806 32.2664 101.425 33.3321C102.044 34.3977 102.895 35.234 103.984 35.8186C105.065 36.4107 106.281 36.7067 107.624 36.7067C110.085 36.7067 112.099 35.7298 113.658 33.7835L115.367 34.901C114.569 36.0999 113.487 37.0249 112.137 37.6836C110.787 38.3422 109.25 38.6753 107.519 38.6753C104.871 38.6753 102.671 37.839 100.925 36.1665C99.1799 34.4939 98.3071 32.4588 98.3071 30.0684C98.3071 28.4551 98.7174 26.9602 99.5305 25.5837C100.351 24.1998 101.47 23.1267 102.895 22.3496C104.327 21.5726 105.923 21.1877 107.684 21.1877C108.795 21.1877 109.862 21.358 110.899 21.691C111.928 22.024 112.808 22.468 113.524 23.0083C114.24 23.5485 114.852 24.2368 115.359 25.073Z" fill="white" stroke="white" stroke-miterlimit="10"/>
<path d="M127.443 21.1877C130.024 21.1877 132.165 22.1128 133.866 23.9704C135.41 25.6651 136.178 27.6632 136.178 29.9796C136.178 32.296 135.365 34.3385 133.732 36.0703C132.098 37.8094 130.002 38.6753 127.443 38.6753C124.885 38.6753 122.766 37.8094 121.133 36.0703C119.499 34.3311 118.686 32.3034 118.686 29.9796C118.686 27.6558 119.462 25.6799 121.006 23.9852C122.707 22.1202 124.847 21.1877 127.443 21.1877ZM127.436 23.2821C125.638 23.2821 124.102 23.9408 122.811 25.2581C121.521 26.5753 120.879 28.1665 120.879 30.0314C120.879 31.2303 121.17 32.3552 121.759 33.3913C122.349 34.4347 123.139 35.234 124.139 35.7964C125.138 36.3589 126.235 36.6475 127.436 36.6475C128.637 36.6475 129.733 36.3663 130.733 35.7964C131.732 35.234 132.531 34.4273 133.112 33.3913C133.702 32.3552 133.993 31.2303 133.993 30.0314C133.993 28.1665 133.344 26.5753 132.053 25.2581C130.763 23.9408 129.219 23.2821 127.436 23.2821Z" fill="white" stroke="white" stroke-miterlimit="10"/>
<path d="M162.204 38.9936L160.205 24.6587L153.059 38.9936H151.559L144.316 24.5329L142.332 38.9936H138.632L142.093 15.0232H143.57L152.32 32.5477L160.988 15.0232H162.457L165.934 38.9936H162.204Z" fill="white" stroke="white" stroke-miterlimit="10"/>
<path d="M139.49 38.2535L142.735 15.7632H143.101L152.32 34.2202L161.451 15.7632H161.816L165.076 38.2535H162.853L160.615 22.1647L152.596 38.2535H152.014L143.906 22.0463L141.676 38.2535H139.49Z" fill="white" stroke="white" stroke-miterlimit="10"/>
<path d="M177.018 39.4228C174.445 39.4228 172.222 38.4829 170.402 36.6402C168.589 34.7974 167.672 32.5255 167.672 29.8909C167.672 27.2563 168.597 25.0657 170.432 23.223C172.267 21.3802 174.505 20.4478 177.078 20.4478C178.57 20.4478 179.943 20.766 181.158 21.4024C181.815 21.7429 182.434 22.1795 183.001 22.7049V20.8696H186.619V38.9861H183.001V37.21C182.382 37.7355 181.725 38.1721 181.032 38.5125C179.808 39.112 178.458 39.4154 177.011 39.4154L177.018 39.4228ZM177.257 23.9926C176.183 23.9926 175.213 24.2442 174.303 24.7697C173.408 25.2877 172.685 26.0204 172.155 26.9602C171.618 27.9001 171.349 28.9066 171.349 29.9575C171.349 31.0083 171.625 32 172.162 32.9547C172.699 33.902 173.43 34.6494 174.333 35.1749C175.236 35.7003 176.213 35.9667 177.242 35.9667C178.272 35.9667 179.294 35.7003 180.233 35.1749C181.181 34.6494 181.882 33.9538 182.389 33.0583C182.889 32.1702 183.15 31.1416 183.15 30.0167C183.15 28.2775 182.591 26.8714 181.449 25.7096C180.308 24.5551 178.935 23.9926 177.265 23.9926H177.257Z" fill="white" stroke="white" stroke-miterlimit="10"/>
<path d="M185.88 21.6171V38.2535H183.754V35.3969C182.852 36.4848 181.837 37.3062 180.711 37.8613C179.585 38.4089 178.354 38.6901 177.019 38.6901C174.647 38.6901 172.618 37.8391 170.939 36.1296C169.261 34.42 168.418 32.3479 168.418 29.8983C168.418 27.4487 169.268 25.458 170.962 23.7558C172.655 22.0537 174.699 21.2026 177.078 21.2026C178.458 21.2026 179.704 21.4913 180.815 22.0759C181.927 22.6605 182.911 23.5264 183.754 24.6883V21.6319H185.88V21.6171ZM177.257 23.2526C176.056 23.2526 174.945 23.5486 173.93 24.1333C172.916 24.7179 172.103 25.5394 171.506 26.5976C170.909 27.6559 170.604 28.7734 170.604 29.9575C170.604 31.1416 170.909 32.2517 171.514 33.3173C172.118 34.383 172.931 35.2193 173.953 35.8113C174.975 36.4034 176.071 36.7068 177.242 36.7068C178.413 36.7068 179.54 36.4108 180.599 35.8187C181.658 35.2267 182.471 34.4274 183.038 33.421C183.605 32.4145 183.896 31.2748 183.896 30.0167C183.896 28.0926 183.255 26.4866 181.979 25.1915C180.704 23.8964 179.13 23.2526 177.265 23.2526H177.257Z" fill="white" stroke="white" stroke-miterlimit="10"/>
<path d="M189.169 38.9937V20.8772H192.862V22.0168C193.16 21.7356 193.473 21.4914 193.787 21.2842C194.637 20.7291 195.54 20.4553 196.48 20.4553C197.203 20.4553 197.964 20.6773 198.755 21.114L199.434 21.4914L197.561 24.496L196.972 24.2444C196.532 24.052 196.271 24.015 196.129 24.015C195.592 24.015 195.077 24.2444 194.54 24.7106C193.988 25.1991 193.548 25.9983 193.235 27.0862C193.063 27.6931 192.862 29.1436 192.862 32.6366V39.0011H189.169V38.9937Z" fill="white" stroke="white" stroke-miterlimit="10"/>
<path d="M189.916 21.6171H192.116V24.0519C192.773 23.0973 193.466 22.3794 194.197 21.9058C194.928 21.4321 195.689 21.1953 196.48 21.1953C197.077 21.1953 197.711 21.3877 198.389 21.7578L197.263 23.5635C196.808 23.3711 196.428 23.2749 196.122 23.2749C195.406 23.2749 194.712 23.5709 194.041 24.1555C193.369 24.7402 192.862 25.6504 192.512 26.8863C192.243 27.8336 192.109 29.7504 192.109 32.6366V38.261H189.908V21.6245L189.916 21.6171Z" fill="white" stroke="white" stroke-miterlimit="10"/>
</g>
<defs>
<clipPath id="clip0_367_1459">
<rect width="200" height="56" fill="white"/>
</clipPath>
</defs>
</svg>
