<svg width="52" height="49" viewBox="0 0 52 49" fill="none" xmlns="http://www.w3.org/2000/svg">
<g clip-path="url(#clip0_8099_72578)">
<path d="M35.2094 10.2273C31.2128 10.2273 27.7809 13.5716 26.1952 15.3841C25.5002 14.5857 24.4576 13.5069 23.1543 12.536V20.5408C24.4576 19.5699 25.5002 18.4911 26.1952 17.6927C27.7809 19.5051 31.2128 22.8495 35.2094 22.8495C40.7048 22.8495 45.1576 16.5492 45.1576 16.5492C45.1576 16.5492 40.7048 10.2489 35.2094 10.2489V10.2273Z" stroke="#E1FEFE" stroke-width="1.3" stroke-miterlimit="10"/>
<path d="M0.652344 36.8524L9.86203 32.2998L17.2689 44.0805L9.84031 48.3742M24.6757 33.767H33.5596C35.1887 33.767 36.5137 32.4508 36.5137 30.8326C36.5137 29.2144 35.1887 27.8982 33.5596 27.8982H21.8303C20.7877 27.8982 19.7451 28.1787 18.8545 28.6965L11.3391 33.0334M34.2981 33.767L47.2438 28.8691C48.7426 28.2434 50.502 28.9555 51.1102 30.4658C51.7401 31.9546 51.0233 33.7023 49.5028 34.3064L36.4051 39.8084C35.4928 40.1968 34.5153 40.3909 33.5162 40.3909H21.8737C21.0701 40.3909 20.2881 40.6067 19.593 41.0167L16.9431 42.5917M18.7459 28.0708C16.8779 25.2659 15.7919 21.9215 15.7919 18.2967C15.7919 8.54418 23.7417 0.647217 33.5596 0.647217C43.3775 0.647217 51.3274 8.54418 51.3274 18.2967C51.3274 22.1373 50.0893 25.6974 47.9823 28.5887" stroke="#E1FEFE" stroke-width="1.3" stroke-linecap="round" stroke-linejoin="round"/>
</g>
<defs>
<clipPath id="clip0_8099_72578">
<rect width="52" height="49" fill="white"/>
</clipPath>
</defs>
</svg>
